<?xml version="1.0" standalone="no"?>
<!DOCTYPE svg PUBLIC "-//W3C//DTD SVG 20010904//EN"
 "http://www.w3.org/TR/2001/REC-SVG-20010904/DTD/svg10.dtd">
<svg version="1.0" xmlns="http://www.w3.org/2000/svg"
 width="256.000000pt" height="256.000000pt" viewBox="0 0 256.000000 256.000000"
 preserveAspectRatio="xMidYMid meet">
<metadata>
Created by potrace 1.14, written by Peter Selinger 2001-2017
</metadata>
<g transform="translate(0.000000,256.000000) scale(0.100000,-0.100000)"
fill="#000000" stroke="none">
<path d="M370 1635 l0 -915 190 0 190 0 2 723 3 722 168 3 167 2 0 -725 0
-725 193 2 192 3 3 723 2 722 165 0 165 0 2 -722 3 -723 190 0 190 0 3 913 2
912 -915 0 -915 0 0 -915z"/>
<path d="M370 195 l0 -195 190 0 190 0 0 195 0 195 -190 0 -190 0 0 -195z"/>
<path d="M1090 195 l0 -195 193 2 192 3 0 190 0 190 -192 3 -193 2 0 -195z"/>
<path d="M1810 195 l0 -195 193 2 192 3 0 190 0 190 -192 3 -193 2 0 -195z"/>
</g>
</svg>
