<svg width="1456" height="234" viewBox="0 0 1456 234" fill="none" xmlns="http://www.w3.org/2000/svg">
<path d="M130.624 167.045V36.4063H100.057L100.079 167.045H65.3119V36.4063H34.7446V167.045H0V1.63568H165.391V167.045H130.624Z" fill="#0D0D0D"/>
<path d="M34.7667 197.594H0V232.364H34.7667V197.594Z" fill="#0D0D0D"/>
<path d="M100.078 197.594H65.3115V232.364H100.078V197.594Z" fill="#0D0D0D"/>
<path d="M165.391 197.594H130.624V232.364H165.391V197.594Z" fill="#0D0D0D"/>
<path d="M210.785 167.045V1.63568H323.904V36.4063H245.552V66.955H323.904V101.726H245.552V132.274H323.904V167.045H210.785Z" fill="#0D0D0D"/>
<path d="M323.926 197.594H210.785V232.364H323.926V197.594Z" fill="#0D0D0D"/>
<path d="M421.57 167.045V36.4063H369.32V1.63568H508.564V36.4063H456.314V167.045H421.57Z" fill="#0D0D0D"/>
<path d="M456.336 197.594H421.569V232.364H456.336V197.594Z" fill="#0D0D0D"/>
<path d="M588.725 197.594H553.958V232.364H588.725V197.594Z" fill="#0D0D0D"/>
<path d="M684.715 197.594H649.948V232.364H684.715V197.594Z" fill="#0D0D0D"/>
<path d="M684.714 1.63568H553.958V36.4063H649.948V66.955H553.958V167.045H588.703V101.726H624.287L649.948 167.045H684.714L659.054 101.726H684.714V1.63568Z" fill="#0D0D0D"/>
<path d="M816.087 171.93C799.085 171.934 782.463 166.896 768.324 157.452C754.186 148.007 743.165 134.582 736.657 118.873C730.148 103.164 728.444 85.8771 731.76 69.1995C735.076 52.5218 743.263 37.2023 755.285 25.1786C767.308 13.1548 782.625 4.96697 799.301 1.65069C815.977 -1.66558 833.261 0.0386762 848.969 6.54791C864.676 13.0571 878.1 24.0789 887.543 38.2192C896.986 52.3594 902.025 68.983 902.02 85.9871C901.991 108.772 892.928 130.615 876.819 146.726C860.709 162.837 838.869 171.901 816.087 171.93ZM816.087 34.8811C805.956 34.8768 796.052 37.8774 787.627 43.5035C779.202 49.1295 772.635 57.1282 768.756 66.4877C764.878 75.8472 763.862 86.147 765.837 96.0841C767.812 106.021 772.69 115.149 779.853 122.313C787.017 129.477 796.143 134.356 806.079 136.331C816.015 138.307 826.314 137.29 835.672 133.411C845.031 129.532 853.029 122.964 858.654 114.538C864.28 106.112 867.28 96.2071 867.276 86.0755C867.281 72.486 861.894 59.4497 852.296 49.8301C842.698 40.2104 829.675 34.794 816.087 34.7706V34.8811Z" fill="#0D0D0D"/>
<path d="M888.958 199.229H743.172V234H888.958V199.229Z" fill="#0D0D0D"/>
<path d="M1038.85 167.045V36.4063H982.181V167.045H947.414V1.63568H1073.62V167.045H1038.85Z" fill="#0D0D0D"/>
<path d="M982.181 197.594H947.414V232.364H982.181V197.594Z" fill="#0D0D0D"/>
<path d="M1073.62 197.594H1038.85V232.364H1073.62V197.594Z" fill="#0D0D0D"/>
<path d="M1119.01 167.045V1.63568H1153.78V132.274H1210.45V1.63568H1245.22V167.045H1119.01Z" fill="#0D0D0D"/>
<path d="M1245.22 197.594H1119.01V232.364H1245.22V197.594Z" fill="#0D0D0D"/>
<path d="M1421.23 167.045V36.4063H1390.67V167.045H1355.92V36.4063H1325.35V167.045H1290.61V1.63568H1455.98V167.045H1421.23Z" fill="#0D0D0D"/>
<path d="M1325.38 197.594H1290.61V232.364H1325.38V197.594Z" fill="#0D0D0D"/>
<path d="M1390.69 197.594H1355.92V232.364H1390.69V197.594Z" fill="#0D0D0D"/>
<path d="M1456 197.594H1421.23V232.364H1456V197.594Z" fill="#0D0D0D"/>
</svg>
