<svg width="538" height="85" viewBox="0 0 538 85" fill="none" xmlns="http://www.w3.org/2000/svg">
<path d="M54.1681 60.0737V13.0927H43.1753L43.1832 60.0737H30.6802V13.0927H19.6874V60.0737H7.19238V0.588257H66.6711V60.0737H54.1681Z" fill="white"/>
<path d="M19.6954 71.0598H7.19238V83.5642H19.6954V71.0598Z" fill="white"/>
<path d="M43.1832 71.0598H30.6802V83.5642H43.1832V71.0598Z" fill="white"/>
<path d="M66.6715 71.0598H54.1685V83.5642H66.6715V71.0598Z" fill="white"/>
<path d="M82.9961 60.0737V0.588257H123.677V13.0927H95.4991V24.0788H123.677V36.5832H95.4991V47.5692H123.677V60.0737H82.9961Z" fill="white"/>
<path d="M123.684 71.0598H82.9961V83.5642H123.684V71.0598Z" fill="white"/>
<path d="M158.8 60.0737V13.0927H140.01V0.588257H190.085V13.0927H171.295V60.0737H158.8Z" fill="white"/>
<path d="M171.303 71.0598H158.8V83.5642H171.303V71.0598Z" fill="white"/>
<path d="M218.913 71.0598H206.41V83.5642H218.913V71.0598Z" fill="white"/>
<path d="M253.434 71.0598H240.931V83.5642H253.434V71.0598Z" fill="white"/>
<path d="M253.434 0.588257H206.41V13.0927H240.931V24.0788H206.41V60.0737H218.905V36.5832H231.702L240.931 60.0737H253.434L244.205 36.5832H253.434V0.588257Z" fill="white"/>
<path d="M300.678 61.8305C294.564 61.8321 288.586 60.02 283.501 56.6236C278.417 53.2272 274.453 48.399 272.113 42.7497C269.772 37.1003 269.159 30.8836 270.352 24.8859C271.544 18.8882 274.489 13.3789 278.812 9.05488C283.136 4.73082 288.644 1.78627 294.641 0.593654C300.638 -0.598964 306.854 0.0139309 312.503 2.35482C318.152 4.6957 322.98 8.65942 326.376 13.7446C329.772 18.8298 331.583 24.8081 331.582 30.9232C331.571 39.1171 328.312 46.9724 322.519 52.7663C316.725 58.5603 308.871 61.82 300.678 61.8305ZM300.678 12.5442C297.035 12.5426 293.473 13.6217 290.443 15.645C287.413 17.6683 285.052 20.5448 283.657 23.9107C282.262 27.2766 281.896 30.9807 282.607 34.5543C283.317 38.1279 285.071 41.4106 287.647 43.987C290.224 46.5634 293.506 48.3177 297.079 49.0282C300.652 49.7386 304.356 49.3732 307.722 47.9781C311.087 46.5831 313.963 44.2211 315.986 41.1909C318.009 38.1607 319.088 34.5986 319.087 30.955C319.089 26.0678 317.151 21.3797 313.7 17.9202C310.248 14.4607 305.565 12.5129 300.678 12.5044V12.5442Z" fill="white"/>
<path d="M326.884 71.648H274.456V84.1524H326.884V71.648Z" fill="white"/>
<path d="M380.79 60.0737V13.0927H360.41V60.0737H347.907V0.588257H393.293V60.0737H380.79Z" fill="white"/>
<path d="M360.41 71.0598H347.907V83.5642H360.41V71.0598Z" fill="white"/>
<path d="M393.293 71.0598H380.79V83.5642H393.293V71.0598Z" fill="white"/>
<path d="M409.618 60.0737V0.588257H422.121V47.5692H442.501V0.588257H455.004V60.0737H409.618Z" fill="white"/>
<path d="M455.004 71.0598H409.618V83.5642H455.004V71.0598Z" fill="white"/>
<path d="M518.305 60.0737V13.0927H507.312V60.0737H494.817V13.0927H483.824V60.0737H471.329V0.588257H530.8V60.0737H518.305Z" fill="white"/>
<path d="M483.832 71.0598H471.329V83.5642H483.832V71.0598Z" fill="white"/>
<path d="M507.319 71.0598H494.816V83.5642H507.319V71.0598Z" fill="white"/>
<path d="M530.807 71.0598H518.304V83.5642H530.807V71.0598Z" fill="white"/>
</svg>
