<svg width="1496" height="172" viewBox="0 0 1496 172" fill="none" xmlns="http://www.w3.org/2000/svg">
<path d="M119.557 38.031L119.579 168.169H85.8119V38.0309V37.5309H85.3119H54.7446H54.2446V38.0309V168.169H20.5V3.76025H184.891V168.169H151.124V38.0309V37.5309H150.624H120.057H119.556L119.557 38.031Z" stroke="#232323"/>
<path d="M265.558 134.399H343.41V168.169H231.291V3.76025H343.41V37.5309H265.558H265.058V38.0309V68.5795V69.0795H265.558H343.41V102.85H265.558H265.058V103.35V133.899V134.399H265.558Z" stroke="#232323"/>
<path d="M475.805 38.0309V168.169H442.06V38.0309V37.5309H441.56H389.811V3.76025H528.054V37.5309H476.305H475.805V38.0309Z" stroke="#232323"/>
<path d="M678.586 103.533L703.978 168.169H670.286L644.75 103.167L644.625 102.85H644.284H608.7H608.2V103.35V168.169H574.455V69.0795H669.945H670.445V68.5795V38.0309V37.5309H669.945H574.455V3.76025H704.211V102.85H679.051H678.317L678.586 103.533Z" stroke="#232323"/>
<path d="M887.778 86.0756C887.784 72.3536 882.344 59.1903 872.653 49.477C862.961 39.7635 849.811 34.2943 836.091 34.2707L835.59 34.2698V34.3834C825.535 34.4763 815.721 37.4994 807.353 43.0877C798.845 48.7687 792.214 56.8455 788.297 66.2964C784.381 75.7472 783.355 86.1475 785.349 96.1816C787.344 106.216 792.269 115.433 799.503 122.667C806.736 129.901 815.952 134.827 825.985 136.822C836.018 138.816 846.417 137.79 855.867 133.873C865.317 129.956 873.392 123.324 879.073 114.816C884.753 106.308 887.783 96.306 887.778 86.0756ZM887.778 86.0756C887.778 86.0757 887.778 86.0757 887.778 86.0758L887.278 86.0756L887.778 86.0754C887.778 86.0754 887.778 86.0755 887.778 86.0756ZM836.089 171.43C819.186 171.434 802.661 166.425 788.605 157.036C774.548 147.646 763.592 134.299 757.121 118.681C750.651 103.064 748.957 85.8777 752.253 69.2971C755.55 52.7164 763.689 37.486 775.642 25.5321C787.594 13.5783 802.823 5.43813 819.401 2.14115C835.98 -1.15583 853.164 0.538512 868.78 7.00987C884.396 13.4812 897.742 24.4389 907.13 38.4969C916.518 52.5548 921.527 69.0814 921.523 85.9865C921.494 108.639 912.483 130.355 896.468 146.372C880.452 162.39 858.739 171.401 836.089 171.43Z" stroke="#232323"/>
<path d="M1001.69 38.0309V168.169H967.924V3.76025H1093.13V168.169H1059.36V38.0309V37.5309H1058.86H1002.19H1001.69V38.0309Z" stroke="#232323"/>
<path d="M1230.96 133.899V3.76025H1264.73V168.169H1139.53V3.76025H1173.29V133.899V134.399H1173.79H1230.46H1230.96V133.899Z" stroke="#232323"/>
<path d="M1344.88 38.0309V168.169H1311.13V3.76025H1475.5V168.169H1441.76V38.0309V37.5309H1441.26H1410.69H1410.19V38.0309V168.169H1376.44V38.0309V37.5309H1375.94H1345.38H1344.88V38.0309Z" stroke="#232323"/>
</svg>
