<svg width="22" height="17" viewBox="0 0 22 17" fill="none" xmlns="http://www.w3.org/2000/svg">
<g clip-path="url(#clip0_1510_11299)">
<path d="M20.4794 12.571H18.5868V6.87692H17.0662V5.25928H22V6.86075H20.4794V12.571Z" fill="black"/>
<path d="M-0.048584 5.25928H2.572C3.59112 5.27545 4.44847 5.61516 5.12789 6.31075C5.82347 6.99016 6.17936 7.86369 6.17936 8.91516C6.16318 9.96663 5.8073 10.824 5.12789 11.5034C4.44847 12.199 3.59112 12.5549 2.572 12.571H-0.048584V5.25928ZM1.84406 10.9534H2.26465C2.83083 10.9534 3.29994 10.7916 3.68818 10.4681C4.07642 10.1446 4.27053 9.62692 4.28671 8.91516C4.28671 8.25192 4.09259 7.73428 3.73671 7.39457C3.36465 7.05487 2.89553 6.87692 2.297 6.87692H1.86024V10.9534H1.84406Z" fill="black"/>
<path d="M11.6147 5.06494C12.6661 5.08112 13.572 5.42082 14.3323 6.10024C15.1088 6.77965 15.497 7.66935 15.5294 8.78553C15.5132 9.96641 15.1573 10.937 14.4294 11.6488C13.7014 12.3767 12.7632 12.7488 11.6147 12.7649C10.45 12.7488 9.52789 12.3767 8.81613 11.6488C8.08819 10.9208 7.71613 9.96641 7.69995 8.78553C7.71613 7.66935 8.12054 6.77965 8.89701 6.10024C9.6573 5.42082 10.5632 5.08112 11.6147 5.06494ZM11.6147 6.89288C11.0647 6.89288 10.5955 7.087 10.2073 7.45906C9.81907 7.83112 9.62495 8.26788 9.60878 8.78553C9.60878 9.41641 9.81907 9.91788 10.2073 10.3223C10.5955 10.7267 11.0647 10.9208 11.6147 10.937C12.1808 10.937 12.6661 10.7267 13.0382 10.3223C13.4264 9.93406 13.6205 9.41641 13.6205 8.78553C13.6205 8.26788 13.4264 7.83112 13.0382 7.45906C12.65 7.10318 12.1808 6.90906 11.6147 6.89288Z" fill="black"/>
</g>
<defs>
<clipPath id="clip0_1510_11299">
<rect width="22" height="7.76471" fill="black" transform="translate(0 5)"/>
</clipPath>
</defs>
</svg>
