<?xml version="1.0" encoding="utf-8"?>
<svg width="36" height="36" viewBox="0 0 36 36" fill="none" xmlns="http://www.w3.org/2000/svg">
<path d="M29.6337 10.6306H25.2449V12.1184H29.6337V10.6306Z" stroke="white" stroke-width="1.85968" stroke-miterlimit="10"/>
<path d="M29.6337 14.5359H25.2449V16.0236H29.6337V14.5359Z" stroke="white" stroke-width="1.85968" stroke-miterlimit="10"/>
<path d="M29.6337 18.4226H25.2449V19.9104H29.6337V18.4226Z" stroke="white" stroke-width="1.85968" stroke-miterlimit="10"/>
<path d="M29.6337 22.3281H25.2449V23.8159H29.6337V22.3281Z" stroke="white" stroke-width="1.85968" stroke-miterlimit="10"/>
<path d="M22.8273 18.4226H18.4385V19.9104H22.8273V18.4226Z" stroke="white" stroke-width="1.85968" stroke-miterlimit="10"/>
<path d="M22.8273 22.3281H18.4385V23.8159H22.8273V22.3281Z" stroke="white" stroke-width="1.85968" stroke-miterlimit="10"/>
<path d="M16.0026 14.5359H11.6138V16.0236H16.0026V14.5359Z" stroke="white" stroke-width="1.85968" stroke-miterlimit="10"/>
<path d="M16.0026 18.4226H11.6138V19.9104H16.0026V18.4226Z" stroke="white" stroke-width="1.85968" stroke-miterlimit="10"/>
<path d="M16.0026 22.3281H11.6138V23.8159H16.0026V22.3281Z" stroke="white" stroke-width="1.85968" stroke-miterlimit="10"/>
<path d="M9.19574 22.3281H4.80688V23.8159H9.19574V22.3281Z" stroke="white" stroke-width="1.85968" stroke-miterlimit="10"/>
</svg>
