<?xml version="1.0" encoding="utf-8"?>
<svg width="35" height="34" viewBox="0 0 35 34" fill="none" xmlns="http://www.w3.org/2000/svg">
<path d="M22.4631 15.6898L22.6317 13.8344H20.0679C19.7324 13.8344 19.4107 13.7011 19.1734 13.4639C18.9362 13.2266 18.8029 12.9049 18.8029 12.5694V10.3429C18.8029 9.36466 18.8029 7.34056 21.8221 7.34056H22.7835V5.48523H20.5571C17.521 5.48523 16.6439 6.51409 16.6439 10.0393V12.6368C16.6439 12.9723 16.5107 13.2941 16.2734 13.5314C16.0362 13.7686 15.7144 13.9019 15.3789 13.9019H13.4561V15.7573H15.3789C15.713 15.7616 16.0323 15.8963 16.2686 16.1326C16.5049 16.3689 16.6396 16.6881 16.6439 17.0223V28.4919H18.8872V17.0223C18.8916 16.6881 19.0263 16.3689 19.2626 16.1326C19.4989 15.8963 19.8181 15.7616 20.1523 15.7573L22.4631 15.6898Z" fill="white"/>
</svg>
