<?xml version="1.0" encoding="utf-8"?>
<svg width="25" height="25" viewBox="0 0 25 25" fill="none" xmlns="http://www.w3.org/2000/svg">
<g clip-path="url(#clip0_810_1872)">
<path d="M17.2201 1.05896H7.76062C4.29192 1.05896 1.47998 3.8709 1.47998 7.3396V16.7991C1.47998 20.2678 4.29192 23.0797 7.76062 23.0797H17.2201C20.6888 23.0797 23.5008 20.2678 23.5008 16.7991V7.3396C23.5008 3.8709 20.6888 1.05896 17.2201 1.05896Z" stroke="white" stroke-width="1.24787" stroke-miterlimit="10"/>
<path d="M12.4807 17.146C15.2897 17.146 17.5669 14.8688 17.5669 12.0598C17.5669 9.25079 15.2897 6.97363 12.4807 6.97363C9.67169 6.97363 7.39453 9.25079 7.39453 12.0598C7.39453 14.8688 9.67169 17.146 12.4807 17.146Z" stroke="white" stroke-width="1.24787" stroke-miterlimit="10"/>
<path d="M18.9153 6.87718C19.6495 6.87718 20.2446 6.28202 20.2446 5.54784C20.2446 4.81367 19.6495 4.21851 18.9153 4.21851C18.1811 4.21851 17.5859 4.81367 17.5859 5.54784C17.5859 6.28202 18.1811 6.87718 18.9153 6.87718Z" fill="white"/>
</g>
<defs>
<clipPath id="clip0_810_1872">
<rect width="23.9474" height="23.9474" fill="white" transform="translate(0.516602 0.0957031)"/>
</clipPath>
</defs>
</svg>
