<?xml version="1.0" encoding="utf-8"?>
<svg width="19" height="19" viewBox="0 0 19 19" fill="none" xmlns="http://www.w3.org/2000/svg">
<g clip-path="url(#clip0_756_25718)">
<path d="M4.66992 14.72V8.38H5.57992V14.72H4.66992Z" fill="black" stroke="white"/>
<path d="M5.06001 4.49642L5.12005 4.50368L5.1801 4.49642C5.25101 4.48784 5.32298 4.49456 5.39113 4.51614C5.45928 4.53772 5.52198 4.57364 5.57503 4.62148C5.62812 4.66936 5.67033 4.72805 5.69879 4.79356C5.72723 4.85901 5.74132 4.92989 5.74009 5.00143L5.73961 5.02937L5.74224 5.05719C5.74676 5.10486 5.74116 5.15292 5.72582 5.19823C5.71159 5.24028 5.6893 5.27906 5.66027 5.31243C5.5937 5.37558 5.51515 5.42486 5.42922 5.45732C5.33938 5.49126 5.24342 5.50607 5.14748 5.50079L5.10362 5.49838L5.06001 5.50365C4.98947 5.51218 4.91795 5.50559 4.8502 5.48431C4.78247 5.46304 4.72003 5.42757 4.66702 5.38024C4.61399 5.33289 4.57169 5.27484 4.54292 5.20996C4.51413 5.14503 4.4995 5.07468 4.50001 5.00365L4.50007 5.00365L4.50001 4.99642C4.4995 4.92541 4.51412 4.85509 4.54292 4.79014C4.57169 4.72527 4.61399 4.66722 4.66702 4.61986C4.72003 4.57253 4.78247 4.53707 4.8502 4.5158C4.91802 4.4945 4.98954 4.48791 5.06001 4.49642Z" fill="black" stroke="white"/>
<path d="M9.74005 11.1007V11.0999H10.1695L10.1693 11.1002M9.74005 11.1007C9.74005 11.101 9.74005 11.1013 9.74005 11.1015L10.1693 11.1002M9.74005 11.1007V11.8219M9.74005 11.1007V11.8219M10.1693 11.1002L9.74005 11.8219M10.1693 11.1002L9.74005 11.8219M9.74005 11.8219L9.7301 11.8386V10.02V8.37994M9.74005 11.8219L9.7301 8.37994M9.74005 11.8219V14.71H8.83008V14.701V14.6897V14.6783V14.6669V14.6554V14.6439V14.6323V14.6206V14.6089V14.5971V14.5853V14.5734V14.5615V14.5495V14.5375V14.5254V14.5132V14.501V14.4887V14.4764V14.4641V14.4516V14.4392V14.4266V14.4141V14.4014V14.3888V14.376V14.3632V14.3504V14.3375V14.3246V14.3116V14.2986V14.2855V14.2724V14.2592V14.246V14.2327V14.2194V14.206V14.1926V14.1791V14.1656V14.152V14.1384V14.1248V14.1111V14.0973V14.0836V14.0697V14.0559V14.0419V14.028V14.014V13.9999V13.9858V13.9717V13.9575V13.9433V13.929V13.9147V13.9004V13.886V13.8716V13.8571V13.8426V13.828V13.8135V13.7988V13.7842V13.7695V13.7547V13.7399V13.7251V13.7103V13.6954V13.6804V13.6655V13.6505V13.6354V13.6203V13.6052V13.5901V13.5749V13.5597V13.5444V13.5291V13.5138V13.4985V13.4831V13.4677V13.4522V13.4367V13.4212V13.4056V13.3901V13.3744V13.3588V13.3431V13.3274V13.3117V13.2959V13.2801V13.2643V13.2484V13.2325V13.2166V13.2007V13.1847V13.1687V13.1527V13.1366V13.1205V13.1044V13.0883V13.0721V13.0559V13.0397V13.0235V13.0072V12.9909V12.9746V12.9583V12.9419V12.9255V12.9091V12.8927V12.8762V12.8598V12.8433V12.8267V12.8102V12.7936V12.7771V12.7604V12.7438V12.7272V12.7105V12.6938V12.6771V12.6604V12.6436V12.6269V12.6101V12.5933V12.5765V12.5596V12.5428V12.5259V12.509V12.4921V12.4752V12.4583V12.4413V12.4243V12.4074V12.3904V12.3734V12.3563V12.3393V12.3222V12.3052V12.2881V12.271V12.2539V12.2368V12.2197V12.2025V12.1854V12.1682V12.151V12.1339V12.1167V12.0995V12.0822V12.065V12.0478V12.0305V12.0133V11.996V11.9788V11.9615V11.9442V11.9269V11.9096V11.8923V11.875V11.8577V11.8404V11.8231V11.8057V11.7884V11.771V11.7537V11.7364V11.719V11.7016V11.6843V11.6669V11.6496V11.6322V11.6148V11.5974V11.5801V11.5627V11.5453V11.5279V11.5106V11.4932V11.4758V11.4584V11.4411V11.4237V11.4063V11.3889V11.3716V11.3542V11.3368V11.3195V11.3021V11.2847V11.2674V11.25V11.2327V11.2153V11.198V11.1807V11.1633V11.146V11.1287V11.1114V11.0941V11.0768V11.0595V11.0422V11.0249V11.0077V10.9904V10.9732V10.9559V10.9387V10.9214V10.9042V10.887V10.8698V10.8526V10.8355V10.8183V10.8011V10.784V10.7668V10.7497V10.7326V10.7155V10.6984V10.6814V10.6643V10.6473V10.6302V10.6132V10.5962V10.5792V10.5622V10.5453V10.5283V10.5114V10.4945V10.4776V10.4607V10.4439V10.427V10.4102V10.3934V10.3766V10.3598V10.3431V10.3263V10.3096V10.2929V10.2763V10.2596V10.243V10.2264V10.2098V10.1932V10.1766V10.1601V10.1436V10.1271V10.1106V10.0942V10.0778V10.0614V10.045V10.0287V10.0123V9.99603V9.97976V9.96351V9.94728V9.93109V9.91491V9.89877V9.88264V9.86655V9.85048V9.83444V9.81843V9.80245V9.78649V9.77056V9.75466V9.73879V9.72295V9.70714V9.69135V9.6756V9.65988V9.64419V9.62853V9.6129V9.5973V9.58173V9.5662V9.5507V9.53523V9.51979V9.50439V9.48902V9.47368V9.45838V9.44311V9.42787V9.41267V9.39751V9.38238V9.36729V9.35223V9.33721V9.32222V9.30728V9.29237V9.27749V9.26266V9.24786V9.2331V9.21838V9.20369V9.18905V9.17444V9.15988V9.14535V9.13087V9.11642V9.10202V9.08766V9.07333V9.05905V9.04481V9.03062V9.01646V9.00235V8.98828V8.97426V8.96027V8.94634V8.93244V8.91859V8.90479V8.89102V8.87731V8.86364V8.85001V8.83643V8.8229V8.80942V8.79598V8.78259V8.76924V8.75594V8.74269V8.72949V8.71634V8.70324V8.69018V8.67718V8.66422V8.65132V8.63846V8.62566V8.6129V8.6002V8.58755V8.57495V8.5624V8.5499V8.53746V8.52507V8.51273V8.50044V8.48821V8.47603V8.46391V8.45184V8.43982V8.42786V8.41596V8.40411V8.39232V8.38058V8.37994M9.74005 11.8219L8.83008 8.37994M9.7301 8.37994H8.83008M9.7301 8.37994H8.83008M12.1008 8.56002C12.0017 8.56186 11.9032 8.56988 11.8059 8.58389C11.8836 8.52309 11.9665 8.46862 12.054 8.42118C12.3465 8.26249 12.6777 8.18899 13.01 8.20904L13.025 8.20995H13.0401C13.7823 8.20995 14.3139 8.45982 14.6699 8.88655C15.0369 9.32628 15.2701 10.0175 15.2701 10.99V14.71H14.3601V11.27C14.3601 10.2123 14.051 9.50283 13.5542 9.06849C13.0704 8.64563 12.4945 8.55993 12.1101 8.55993V8.55984L12.1008 8.56002Z" fill="black" stroke="white"/>
</g>
<defs>
<clipPath id="clip0_756_25718">
<rect width="11.77" height="11.21" fill="white" transform="translate(4 4)"/>
</clipPath>
</defs>
</svg>
