<?xml version="1.0" encoding="utf-8"?>
<svg width="20" height="20" viewBox="0 0 20 20" fill="none" xmlns="http://www.w3.org/2000/svg">
<path d="M6.73815 8.0835L5.07238 9.74926C4.38567 10.436 3.99988 11.3674 3.99988 12.3385C3.99988 13.3097 4.38567 14.2411 5.07238 14.9278C5.7591 15.6145 6.69048 16.0003 7.66164 16.0003C8.6328 16.0003 9.56418 15.6145 10.2509 14.9278L11.9167 13.262" stroke="black" stroke-miterlimit="10"/>
<path d="M13.2618 11.9168L14.9275 10.251C15.6143 9.56431 16 8.63292 16 7.66176C16 6.6906 15.6143 5.75922 14.9275 5.07251C14.2408 4.38579 13.3094 4 12.3383 4C11.3671 4 10.4357 4.38579 9.74902 5.07251L8.08325 6.73827" stroke="black" stroke-miterlimit="10"/>
<path d="M7.672 12.3277L9.99989 9.99977L12.3278 7.67188" fill="white"/>
<path d="M7.672 12.3277L9.99989 9.99977L12.3278 7.67188" stroke="black" stroke-miterlimit="10" stroke-linecap="round"/>
</svg>
