<?xml version="1.0" encoding="utf-8"?>
<svg width="20" height="20" viewBox="0 0 20 20" fill="none" xmlns="http://www.w3.org/2000/svg">
<g clip-path="url(#clip0_821_29587)">
<path d="M8.98999 13.5601V5.95014C9.76642 5.52891 10.6654 5.39132 11.5322 5.56104C12.3991 5.73077 13.1797 6.1972 13.74 6.88013C14.2976 7.52842 14.6462 8.33016 14.74 9.18012C15.0835 9.03175 15.4583 8.97059 15.8312 9.00208C16.204 9.03357 16.5633 9.15675 16.877 9.36063C17.1908 9.56452 17.4493 9.84278 17.6295 10.1707C17.8097 10.4986 17.9061 10.866 17.91 11.2401C17.9435 11.8109 17.7534 12.3723 17.3801 12.8054C17.0067 13.2384 16.4795 13.5091 15.91 13.5601H8.98999Z" stroke="black" stroke-miterlimit="10"/>
<path d="M7.58997 6.56006V13.9701" stroke="black" stroke-miterlimit="10"/>
<path d="M6.17004 7.58984V13.9698" stroke="#232323" stroke-miterlimit="10"/>
<path d="M4.75 7.1499V13.9699" stroke="#232323" stroke-miterlimit="10"/>
<path d="M3.32996 8.18018V13.9702" stroke="#232323" stroke-miterlimit="10"/>
<path d="M2 10L2 13" stroke="#232323" stroke-miterlimit="10"/>
</g>
<defs>
<clipPath id="clip0_821_29587">
<rect width="18.4" height="9.08" fill="white" transform="translate(0 5)"/>
</clipPath>
</defs>
</svg>
