<?xml version="1.0" encoding="utf-8"?>
<svg width="19" height="20" viewBox="0 0 19 20" fill="none" xmlns="http://www.w3.org/2000/svg">
<path d="M12.2445 12.7446L16.7375 8.26758L14.9371 6.46721C14.6425 6.74044 14.2556 6.89226 13.8537 6.89226C13.4519 6.89226 13.065 6.74044 12.7703 6.46721C12.4971 6.17259 12.3453 5.78561 12.3453 5.38379C12.3453 4.98198 12.4971 4.595 12.7703 4.30038L10.97 2.5L6.49292 6.99297" stroke="white" stroke-miterlimit="10"/>
<path d="M6.49298 6.99316L2 11.4702L3.80038 13.2706C4.095 12.9973 4.48197 12.8455 4.88378 12.8455C5.2856 12.8455 5.67257 12.9973 5.96718 13.2706C6.24042 13.5652 6.39224 13.9522 6.39224 14.354C6.39224 14.7558 6.24042 15.1428 5.96718 15.4374L7.76756 17.2378L12.2446 12.7448" stroke="white" stroke-miterlimit="10"/>
<path d="M7.89502 5.59082L13.6466 11.3425" stroke="white" stroke-miterlimit="10"/>
</svg>
