<?xml version="1.0" encoding="utf-8"?>
<svg width="20" height="20" viewBox="0 0 20 20" fill="none" xmlns="http://www.w3.org/2000/svg">
<path d="M16.242 5.47372C15.7007 5.80297 15.1057 6.03455 14.4841 6.15793C14.2292 5.87777 13.9189 5.6536 13.5728 5.49958C13.2267 5.34557 12.8524 5.26507 12.4736 5.26318C11.7319 5.27428 11.0246 5.57819 10.506 6.10862C9.98742 6.63904 9.69955 7.35297 9.70519 8.09476C9.70773 8.31076 9.73243 8.52594 9.77888 8.73689C8.67511 8.6785 7.59667 8.38427 6.61617 7.87404C5.63567 7.36382 4.77587 6.64945 4.09468 5.77899C3.73753 6.40117 3.62695 7.13476 3.78484 7.83456C3.94274 8.53437 4.3576 9.1494 4.94731 9.55794C4.50742 9.54783 4.07694 9.42844 3.69467 9.21055V9.21055C3.68901 9.8569 3.90547 10.4856 4.30785 10.9915C4.71024 11.4973 5.27413 11.8497 5.90519 11.9895C5.66852 12.054 5.42418 12.0859 5.17889 12.0842C5.00545 12.088 4.8322 12.0704 4.66309 12.0316C4.83122 12.5893 5.17097 13.0798 5.634 13.4332C6.09703 13.7866 6.65974 13.985 7.24204 14C6.2697 14.7831 5.0589 15.2102 3.81046 15.2106C3.58941 15.2106 3.36836 15.2106 3.15784 15.2106C4.40866 16.0321 5.87188 16.4711 7.36836 16.4737C8.41458 16.467 9.44903 16.2526 10.4118 15.843C11.3745 15.4334 12.2464 14.8368 12.9768 14.0878C13.7072 13.3387 14.2817 12.4521 14.667 11.4794C15.0522 10.5067 15.2405 9.46713 15.221 8.42108C15.221 8.30529 15.221 8.179 15.221 8.05268C15.7661 7.6532 16.2334 7.1573 16.5999 6.58951C16.0964 6.82089 15.5603 6.97354 15.0105 7.04213C15.5938 6.6817 16.0302 6.1259 16.242 5.47372V5.47372Z" stroke="#FFFFFF" stroke-linejoin="round"/>
</svg>
