<?xml version="1.0" encoding="utf-8"?>
<svg width="17" height="15" viewBox="0 0 17 15" fill="none" xmlns="http://www.w3.org/2000/svg">
<g clip-path="url(#clip0_733_13560)">
<path d="M7.63398 1.5C8.01888 0.833332 8.98112 0.833333 9.36602 1.5L14.9952 11.25C15.3801 11.9167 14.899 12.75 14.1292 12.75H2.87083C2.10103 12.75 1.61991 11.9167 2.00481 11.25L7.63398 1.5Z" fill="#0E0E0E"/>
<path d="M8.49999 8.14386C8.17626 8.14386 7.96045 7.92805 7.96045 7.60433V4.90721C7.96045 4.58349 8.17626 4.36768 8.49999 4.36768C8.82371 4.36768 9.03952 4.58349 9.03952 4.90721V7.60433C9.03952 7.92805 8.82308 8.14386 8.49999 8.14386Z" fill="#FAC039"/>
<path d="M9.03952 10.2225C9.03952 10.9417 7.96045 10.9417 7.96045 10.2225C7.96045 9.50331 9.03952 9.50331 9.03952 10.2225Z" fill="#FAC039"/>
<path d="M8.50023 11.0317C8.06861 11.0317 7.69092 10.654 7.69092 10.2224C7.69092 9.79141 8.06859 9.41309 8.50023 9.41309C8.93122 9.41309 9.30954 9.79076 9.30954 10.2224C9.30954 10.654 8.93124 11.0317 8.50023 11.0317ZM8.50023 9.95327C8.33837 9.95327 8.23045 10.0612 8.23045 10.223C8.23045 10.3849 8.33836 10.4928 8.50023 10.4928C8.6621 10.4928 8.77001 10.3849 8.77001 10.223C8.77001 10.0612 8.6621 9.95327 8.50023 9.95327Z" fill="#FAC039"/>
</g>
<defs>
<clipPath id="clip0_733_13560">
<rect width="17" height="15" fill="white"/>
</clipPath>
</defs>
</svg>
