<?xml version="1.0" encoding="utf-8"?>
<svg width="19" height="19" viewBox="0 0 19 19" fill="none" xmlns="http://www.w3.org/2000/svg">
<path d="M7.84473 12.1457V7.77673L12.1748 9.97091L7.84473 12.1457Z" stroke="white" stroke-linejoin="round"/>
<path d="M17.5145 10.0097C17.5438 11.0254 17.4886 12.0419 17.3494 13.0485C17.3158 13.6335 17.0708 14.1863 16.66 14.6042C16.2493 15.0221 15.7007 15.2766 15.1164 15.3204C13.25 15.4724 11.3769 15.5275 9.50476 15.4854C7.63261 15.5279 5.75953 15.4728 3.89311 15.3204C3.30706 15.2789 2.75618 15.0254 2.34343 14.6072C1.93068 14.1891 1.68432 13.635 1.6504 13.0485C1.43034 11.0286 1.43034 8.99074 1.6504 6.97083C1.68432 6.38429 1.93068 5.8302 2.34343 5.41209C2.75618 4.99398 3.30706 4.74048 3.89311 4.69899C5.75924 4.54135 7.6326 4.48624 9.50476 4.53393C11.3769 4.48679 13.2503 4.5419 15.1164 4.69899C15.7007 4.74273 16.2493 4.99723 16.66 5.41512C17.0708 5.83301 17.3158 6.38584 17.3494 6.97083C17.4889 7.97742 17.5441 8.9939 17.5145 10.0097V10.0097Z" stroke="white" stroke-linejoin="round"/>
</svg>
